<svg width="800" height="600" xmlns="http://www.w3.org/2000/svg">
 <g id="Layer_1">
  <title>Layer 1</title>
  <g id="svg_5">
   <path id="svg_2" d="m289.95784,213.39791c-4.53141,-0.28752 -12.68768,4.02771 -10.86902,-3.34794c3.15282,-4.52647 11.68912,-2.37435 10.71876,2.90053l0.11082,0.32995l0.03945,0.11746l0,0zm10.9604,-9.7841c-4.32498,6.1369 -14.06876,6.57577 -21.38498,8.86139c-3.38854,1.61011 -17.12628,2.65651 -11.89534,-2.25897c7.47009,-4.10204 16.658,-5.09221 25.06849,-7.32901c2.70797,-0.52721 5.84913,-0.73419 8.21183,0.72659zm-22.36939,6.49027c-3.29925,-9.38059 -6.59848,-18.76117 -9.89772,-28.14177c4.03609,-4.54816 12.93475,-2.57582 11.70196,3.48678c2.56499,7.2929 5.12997,14.58582 7.69495,21.87874m-3.55489,4.93587c14.41091,41.83451 31.16909,83.17729 52.11061,123.10076m-48.30557,-124.18912c14.55806,39.36935 29.4567,78.78 49.55194,116.50043c0.27661,2.92255 9.45347,11.68495 1.13373,9.42397c-2.58717,-1.02704 -7.00576,-0.3287 -7.48502,-3.34186c-19.6313,-39.30369 -36.65211,-79.49983 -51.03458,-120.3316" stroke="#000" fill="#fff"/>
   <path id="svg_3" d="m510.2888,290.76485c-12.04535,-14.48183 -26.78198,-26.20638 -41.56387,-34.40816c-17.24814,8.40687 -38.25544,13.52603 -61.15749,13.52603c-22.94701,0 -43.98453,-5.12914 -61.20226,-13.52603c-14.78185,8.20178 -29.53354,19.92633 -41.60845,34.40816c-28.0301,33.62266 -31.11272,68.11093 -6.90257,77.05328c10.84233,4.02824 22.21035,1.02582 33.9548,-6.50545c-2.06014,7.63624 -3.26322,15.91293 -3.26322,24.57011c0,38.46167 22.45114,69.61722 50.11972,69.61722c16.67679,0 24.93229,-11.34444 28.90199,-28.71363c3.95505,17.3692 12.21049,28.71363 28.82683,28.71363c27.71405,0 50.16539,-31.15555 50.16539,-69.61722c0,-8.6572 -1.20348,-16.93388 -3.30839,-24.57011c11.77426,7.53127 23.12732,10.53369 33.99975,6.50545c24.19525,-8.94235 21.0671,-43.43063 -6.96222,-77.05328l-0.00002,0zm-102.75095,-34.00287c46.55565,0 84.31472,-25.13054 84.31472,-56.13096s-37.75907,-56.13102 -84.31472,-56.13102c-46.57149,0 -84.36038,25.13554 -84.36038,56.13102s37.78889,56.13096 84.36038,56.13096z" stroke="#000" fill="#fff"/>
  </g>
 </g>
</svg>