<svg version="1.0" xmlns="http://www.w3.org/2000/svg"
 width="836.000000pt" height="313.000000pt" viewBox="0 0 836.000000 313.000000"
 preserveAspectRatio="xMidYMid meet">

<g transform="translate(0.000000,313.000000) scale(0.100000,-0.100000)"
fill="#000000" stroke="none">
<path d="M1468 2470 c-233 -42 -440 -168 -581 -352 -364 -476 -195 -1163 348
-1414 139 -64 211 -79 390 -79 137 0 172 4 240 23 333 95 586 357 666 688 30
124 30 304 0 428 -80 329 -334 593 -661 686 -84 24 -317 36 -402 20z m376 -79
c241 -63 444 -230 556 -456 73 -148 85 -201 85 -385 0 -184 -12 -237 -85 -385
-112 -225 -312 -390 -556 -456 -117 -32 -328 -33 -439 -1 -322 92 -564 345
-631 661 -18 85 -18 277 0 362 73 343 358 616 708 678 82 15 271 5 362 -18z"/>
<path d="M1043 1743 c-7 -2 -13 -20 -13 -38 0 -25 8 -40 31 -59 44 -38 92 -35
132 7 31 31 36 32 127 37 83 4 95 7 98 24 2 10 -2 22 -10 27 -14 9 -344 11
-365 2z"/>
<path d="M1843 1743 c-24 -9 -15 -63 16 -94 43 -42 93 -41 136 6 32 34 34 34
126 37 83 3 94 5 97 22 2 10 -2 22 -10 27 -14 9 -344 11 -365 2z"/>
<path d="M1033 1264 c-10 -28 28 -85 117 -175 68 -69 102 -94 170 -127 114
-56 185 -73 305 -73 208 0 387 86 525 252 59 71 75 101 67 123 -12 32 -43 16
-82 -40 -126 -182 -332 -284 -549 -271 -187 11 -342 99 -472 269 -46 59 -70
71 -81 42z"/>
<path d="M2890 1870 l0 -40 75 0 75 0 0 40 0 40 -75 0 -75 0 0 -40z"/>
<path d="M3160 1885 c0 -22 -4 -25 -40 -25 -39 0 -40 -1 -40 -35 l0 -34 123
-3 122 -3 3 -27 3 -28 -94 0 c-144 0 -142 3 -142 -204 0 -145 2 -167 18 -183
16 -16 42 -18 235 -21 258 -4 286 1 302 56 13 48 13 246 -1 295 -13 49 -35 57
-155 57 l-94 0 0 30 0 30 130 0 130 0 0 35 c0 35 0 35 -45 35 -41 0 -45 2 -45
25 0 23 -4 25 -40 25 -36 0 -40 -2 -40 -25 l0 -25 -125 0 -125 0 0 25 c0 23
-4 25 -40 25 -36 0 -40 -2 -40 -25z m424 -241 c3 -9 6 -18 6 -20 0 -2 -97 -4
-215 -4 -172 0 -215 3 -215 13 0 8 3 17 7 20 3 4 97 7 209 7 175 0 203 -2 208
-16z m4 -111 l3 -23 -215 0 -216 0 0 25 0 25 213 -2 c211 -3 212 -3 215 -25z
m2 -107 c0 -33 -26 -36 -226 -34 -198 3 -199 3 -202 26 l-3 22 215 0 c177 0
216 -3 216 -14z"/>
<path d="M4057 1903 c-3 -5 -8 -23 -12 -40 l-7 -33 -79 0 -79 0 0 -35 0 -35
70 0 c59 0 70 -3 70 -17 0 -9 -18 -111 -41 -227 -39 -205 -54 -246 -86 -246
-9 0 -13 -13 -13 -41 0 -39 1 -41 26 -35 39 10 73 36 90 67 8 15 26 89 41 164
l26 136 103 -102 c71 -71 100 -106 94 -114 -24 -28 -111 -65 -169 -71 l-61 -7
0 -38 c0 -22 3 -39 8 -39 4 0 35 5 68 10 69 11 133 37 182 74 l33 24 76 -38
c74 -38 137 -56 218 -62 39 -3 40 -2 43 33 l3 37 -70 7 c-48 5 -93 17 -138 39
l-67 32 85 64 c151 113 168 136 149 196 -21 62 -29 64 -292 64 l-238 0 0 23
c0 12 3 32 6 45 l6 22 279 0 279 0 0 35 0 35 -271 0 -272 0 7 40 6 40 -34 0
c-19 0 -37 -3 -39 -7z m491 -323 c1 -9 -41 -48 -106 -98 l-109 -82 -89 90
c-49 50 -91 96 -92 101 -3 6 70 8 194 7 167 -3 199 -5 202 -18z"/>
<path d="M5360 1890 c0 -19 -7 -20 -105 -20 l-105 0 0 -30 0 -29 102 -3 c89
-3 103 -5 106 -20 3 -16 -7 -18 -102 -18 l-106 0 0 -30 0 -29 103 -3 c97 -3
102 -4 105 -25 3 -23 2 -23 -107 -23 l-111 0 0 -30 0 -30 255 0 255 0 0 30 0
30 -111 0 c-109 0 -110 0 -107 23 3 21 8 22 106 25 l102 3 0 29 0 30 -106 0
c-95 0 -105 2 -102 18 3 15 17 17 106 20 l102 3 0 29 0 30 -105 0 c-98 0 -105
1 -105 20 0 16 -7 20 -35 20 -28 0 -35 -4 -35 -20z"/>
<path d="M7200 1800 l0 -110 -100 0 -100 0 0 100 0 100 -40 0 -40 0 0 -100 0
-100 -25 0 c-22 0 -25 -4 -25 -40 l0 -40 165 0 165 0 0 -115 0 -115 35 0 35 0
0 115 0 115 185 0 185 0 0 40 0 40 -185 0 -185 0 0 45 0 45 185 0 185 0 0 35
0 35 -182 2 -183 3 -3 28 c-3 24 -8 27 -38 27 l-34 0 0 -110z"/>
<path d="M4880 1860 l0 -40 85 0 85 0 0 40 0 40 -85 0 -85 0 0 -40z"/>
<path d="M5890 1880 c-17 -17 -20 -33 -20 -124 0 -151 0 -151 170 -151 126 0
133 1 151 24 11 14 19 39 19 62 0 38 -1 39 -34 39 -28 0 -35 -4 -40 -25 -6
-24 -9 -25 -95 -25 -100 0 -101 1 -101 75 0 77 -3 75 141 75 l129 0 0 35 0 35
-150 0 c-137 0 -152 -2 -170 -20z"/>
<path d="M6250 1865 c0 -33 2 -35 31 -35 l31 0 -7 -47 c-8 -53 -21 -84 -41
-96 -8 -4 -14 -24 -14 -44 0 -33 1 -35 28 -29 44 11 79 57 92 123 20 101 11
93 105 93 97 0 99 -2 93 -96 l-3 -49 -52 -3 -53 -3 0 -41 0 -41 73 6 c100 9
107 18 107 153 0 149 7 144 -215 144 l-175 0 0 -35z"/>
<path d="M2890 1685 c0 -27 4 -35 18 -35 38 0 42 -19 42 -178 l0 -154 -30 -30
c-20 -19 -30 -40 -30 -59 0 -35 20 -38 65 -11 29 18 31 18 60 0 27 -16 58 -18
338 -18 l307 0 0 35 0 35 -300 0 c-287 0 -301 1 -320 20 -19 19 -20 33 -20
205 0 172 -1 186 -20 205 -14 14 -33 20 -65 20 -45 0 -45 0 -45 -35z"/>
<path d="M4880 1676 c0 -33 2 -35 38 -38 l37 -3 5 -197 c6 -230 8 -234 98
-245 l52 -6 0 41 c0 39 -2 41 -32 44 l-33 3 -5 203 c-6 236 -4 232 -102 232
l-58 0 0 -34z"/>
<path d="M5924 1560 c-45 -18 -54 -46 -54 -172 0 -206 -12 -200 400 -196 l310
3 27 28 c27 26 28 32 31 143 3 76 0 126 -9 145 -23 57 -38 59 -376 58 -169 0
-318 -4 -329 -9z m296 -100 l0 -40 -140 0 c-137 0 -140 0 -140 22 0 12 7 30
17 40 14 16 33 18 140 18 l123 0 0 -40z m334 18 c9 -12 16 -30 16 -40 0 -16
-13 -18 -140 -18 l-140 0 0 40 0 40 124 0 c118 0 126 -1 140 -22z m-334 -173
l0 -35 -128 0 c-136 0 -152 5 -152 47 0 23 1 23 140 23 l140 0 0 -35z m350 19
c0 -8 -5 -24 -10 -35 -10 -17 -22 -19 -140 -19 l-130 0 0 35 0 35 140 0 c120
0 140 -2 140 -16z"/>
<path d="M5194 1546 c-17 -7 -34 -21 -38 -31 -3 -9 -6 -86 -6 -171 l0 -154 35
0 c35 0 35 0 35 45 l0 45 176 0 c136 0 175 -3 172 -12 -3 -7 -19 -14 -36 -16
-28 -3 -32 -7 -32 -34 l0 -31 53 7 c81 10 87 22 87 181 0 190 13 179 -227 183
-144 2 -195 -1 -219 -12z m374 -78 c3 -17 -10 -18 -172 -18 -140 0 -176 3
-176 13 0 8 3 17 7 21 4 3 81 5 172 4 149 -3 166 -5 169 -20z m2 -103 l0 -25
-175 0 -175 0 0 25 0 25 175 0 175 0 0 -25z"/>
<path d="M6926 1508 c-7 -54 -28 -88 -53 -88 -8 0 -13 -12 -13 -35 0 -29 4
-35 21 -35 31 0 84 35 97 64 6 13 14 41 17 63 3 21 8 48 11 61 4 20 1 22 -35
22 l-38 0 -7 -52z"/>
<path d="M7464 1484 c-150 -125 -253 -173 -426 -198 -58 -9 -120 -16 -137 -16
-30 0 -31 -2 -31 -40 0 -37 2 -40 23 -36 12 3 60 8 106 11 217 17 377 92 561
264 l85 80 -51 1 c-49 0 -55 -3 -130 -66z"/>
</g>
</svg>
